<mxfile host="Electron" agent="Mozilla/5.0 (Macintosh; Intel Mac OS X 10_15_7) AppleWebKit/537.36 (KHTML, like Gecko) draw.io/26.2.2 Chrome/134.0.6998.178 Electron/35.1.2 Safari/537.36" version="26.2.2">
  <diagram name="Page-1" id="qAh5qdnp3_GHVhPKIyZk">
    <mxGraphModel dx="1418" dy="1191" grid="1" gridSize="10" guides="1" tooltips="1" connect="1" arrows="1" fold="1" page="1" pageScale="1" pageWidth="1169" pageHeight="827" math="0" shadow="0">
      <root>
        <mxCell id="0" />
        <mxCell id="1" parent="0" />
        <mxCell id="d56XgBpLTi84VJgYfu7U-61" value="&amp;nbsp;picoX21H" style="whiteSpace=wrap;html=1;fillColor=#99FF99;align=left;verticalAlign=bottom;fontSize=29;" vertex="1" parent="1">
          <mxGeometry x="230" y="81" width="680" height="711" as="geometry" />
        </mxCell>
        <mxCell id="d56XgBpLTi84VJgYfu7U-26" value="&lt;font style=&quot;color: rgb(51, 102, 0);&quot;&gt;Raspberry Pi Pico&lt;br&gt;(RP2040 or RP2350)&lt;/font&gt;" style="rounded=0;whiteSpace=wrap;html=1;verticalAlign=bottom;fontSize=18;fillColor=#97D077;strokeColor=#336600;" vertex="1" parent="1">
          <mxGeometry x="270" y="103" width="404.04" height="630" as="geometry" />
        </mxCell>
        <mxCell id="d56XgBpLTi84VJgYfu7U-11" style="edgeStyle=orthogonalEdgeStyle;rounded=0;orthogonalLoop=1;jettySize=auto;html=1;exitX=1;exitY=0.5;exitDx=0;exitDy=0;entryX=0;entryY=0.5;entryDx=0;entryDy=0;fontSize=14;" edge="1" parent="1" source="d56XgBpLTi84VJgYfu7U-1" target="d56XgBpLTi84VJgYfu7U-7">
          <mxGeometry relative="1" as="geometry" />
        </mxCell>
        <mxCell id="d56XgBpLTi84VJgYfu7U-38" style="edgeStyle=orthogonalEdgeStyle;rounded=0;orthogonalLoop=1;jettySize=auto;html=1;exitX=0.5;exitY=1;exitDx=0;exitDy=0;fontSize=14;" edge="1" parent="1" source="d56XgBpLTi84VJgYfu7U-1" target="d56XgBpLTi84VJgYfu7U-37">
          <mxGeometry relative="1" as="geometry">
            <Array as="points">
              <mxPoint x="479" y="273" />
            </Array>
          </mxGeometry>
        </mxCell>
        <mxCell id="d56XgBpLTi84VJgYfu7U-39" style="edgeStyle=orthogonalEdgeStyle;rounded=0;orthogonalLoop=1;jettySize=auto;html=1;exitX=0.5;exitY=0;exitDx=0;exitDy=0;entryX=0;entryY=0.5;entryDx=0;entryDy=0;fontSize=14;" edge="1" parent="1" source="d56XgBpLTi84VJgYfu7U-1" target="d56XgBpLTi84VJgYfu7U-23">
          <mxGeometry relative="1" as="geometry">
            <Array as="points">
              <mxPoint x="479" y="473" />
            </Array>
          </mxGeometry>
        </mxCell>
        <mxCell id="d56XgBpLTi84VJgYfu7U-41" style="edgeStyle=orthogonalEdgeStyle;rounded=0;orthogonalLoop=1;jettySize=auto;html=1;exitX=0.5;exitY=1;exitDx=0;exitDy=0;entryX=0;entryY=0.5;entryDx=0;entryDy=0;dashed=1;" edge="1" parent="1" source="d56XgBpLTi84VJgYfu7U-1" target="d56XgBpLTi84VJgYfu7U-40">
          <mxGeometry relative="1" as="geometry">
            <Array as="points">
              <mxPoint x="479" y="173" />
            </Array>
          </mxGeometry>
        </mxCell>
        <mxCell id="d56XgBpLTi84VJgYfu7U-1" value="arm&lt;br&gt;Core 0&lt;br&gt;&quot;DX21&quot;" style="whiteSpace=wrap;html=1;aspect=fixed;fillColor=#66B2FF;strokeColor=#003366;fontSize=14;fontColor=#003366;" vertex="1" parent="1">
          <mxGeometry x="439.04" y="333" width="80" height="80" as="geometry" />
        </mxCell>
        <mxCell id="d56XgBpLTi84VJgYfu7U-20" style="edgeStyle=orthogonalEdgeStyle;rounded=0;orthogonalLoop=1;jettySize=auto;html=1;exitX=1;exitY=0.5;exitDx=0;exitDy=0;entryX=0;entryY=0.5;entryDx=0;entryDy=0;fontSize=14;" edge="1" parent="1" source="d56XgBpLTi84VJgYfu7U-2" target="d56XgBpLTi84VJgYfu7U-13">
          <mxGeometry relative="1" as="geometry" />
        </mxCell>
        <mxCell id="d56XgBpLTi84VJgYfu7U-2" value="arm&lt;br&gt;Core 1&lt;br&gt;&quot;effects&quot;" style="whiteSpace=wrap;html=1;aspect=fixed;fillColor=#66B2FF;strokeColor=#003366;fontSize=14;fontColor=#003366;" vertex="1" parent="1">
          <mxGeometry x="439.04" y="573" width="80" height="80" as="geometry" />
        </mxCell>
        <mxCell id="d56XgBpLTi84VJgYfu7U-3" value="YM2151&lt;br&gt;OPM" style="whiteSpace=wrap;html=1;aspect=fixed;fillColor=#97D077;strokeColor=#006600;fontSize=14;" vertex="1" parent="1">
          <mxGeometry x="769.04" y="333" width="80" height="80" as="geometry" />
        </mxCell>
        <mxCell id="d56XgBpLTi84VJgYfu7U-5" style="edgeStyle=orthogonalEdgeStyle;rounded=0;orthogonalLoop=1;jettySize=auto;html=1;exitX=1;exitY=0.5;exitDx=0;exitDy=0;entryX=0;entryY=0.5;entryDx=0;entryDy=0;fontSize=14;" edge="1" parent="1" source="d56XgBpLTi84VJgYfu7U-4" target="d56XgBpLTi84VJgYfu7U-1">
          <mxGeometry relative="1" as="geometry" />
        </mxCell>
        <mxCell id="d56XgBpLTi84VJgYfu7U-28" style="edgeStyle=orthogonalEdgeStyle;rounded=0;orthogonalLoop=1;jettySize=auto;html=1;startArrow=classic;startFill=1;endArrow=none;fontSize=14;entryX=1.06;entryY=0.465;entryDx=0;entryDy=0;entryPerimeter=0;" edge="1" parent="1" source="d56XgBpLTi84VJgYfu7U-4" target="d56XgBpLTi84VJgYfu7U-44">
          <mxGeometry relative="1" as="geometry">
            <mxPoint x="169.04" y="373" as="targetPoint" />
          </mxGeometry>
        </mxCell>
        <mxCell id="d56XgBpLTi84VJgYfu7U-29" value="USB MIDI&lt;br&gt;+ Power" style="edgeLabel;html=1;align=center;verticalAlign=middle;resizable=0;points=[];fontSize=14;labelBackgroundColor=none;" vertex="1" connectable="0" parent="d56XgBpLTi84VJgYfu7U-28">
          <mxGeometry x="0.0919" relative="1" as="geometry">
            <mxPoint x="-40" y="-21" as="offset" />
          </mxGeometry>
        </mxCell>
        <mxCell id="d56XgBpLTi84VJgYfu7U-4" value="USB" style="whiteSpace=wrap;html=1;aspect=fixed;fillColor=#FFFFCC;strokeColor=#666600;fontSize=14;fontColor=#666600;" vertex="1" parent="1">
          <mxGeometry x="319.04" y="333" width="80" height="80" as="geometry" />
        </mxCell>
        <mxCell id="d56XgBpLTi84VJgYfu7U-10" value="8-bit bus" style="edgeStyle=orthogonalEdgeStyle;rounded=0;orthogonalLoop=1;jettySize=auto;html=1;exitX=1;exitY=0.5;exitDx=0;exitDy=0;entryX=0;entryY=0.5;entryDx=0;entryDy=0;startArrow=classic;startFill=1;fontSize=14;strokeWidth=3;labelBackgroundColor=none;" edge="1" parent="1">
          <mxGeometry x="0.2455" y="10" relative="1" as="geometry">
            <mxPoint x="639.04" y="363" as="sourcePoint" />
            <mxPoint x="769.0400000000002" y="363" as="targetPoint" />
            <mxPoint as="offset" />
          </mxGeometry>
        </mxCell>
        <mxCell id="d56XgBpLTi84VJgYfu7U-53" style="edgeStyle=orthogonalEdgeStyle;rounded=0;orthogonalLoop=1;jettySize=auto;html=1;exitX=1;exitY=0.75;exitDx=0;exitDy=0;entryX=0;entryY=0.75;entryDx=0;entryDy=0;" edge="1" parent="1" source="d56XgBpLTi84VJgYfu7U-7" target="d56XgBpLTi84VJgYfu7U-3">
          <mxGeometry relative="1" as="geometry" />
        </mxCell>
        <mxCell id="d56XgBpLTi84VJgYfu7U-54" value="IC" style="edgeLabel;html=1;align=center;verticalAlign=middle;resizable=0;points=[];labelBackgroundColor=none;" vertex="1" connectable="0" parent="d56XgBpLTi84VJgYfu7U-53">
          <mxGeometry x="0.1613" y="1" relative="1" as="geometry">
            <mxPoint y="-9" as="offset" />
          </mxGeometry>
        </mxCell>
        <mxCell id="d56XgBpLTi84VJgYfu7U-7" value="GPIO" style="whiteSpace=wrap;html=1;aspect=fixed;fillColor=#FFFFCC;strokeColor=#666600;fontSize=14;fontColor=#666600;" vertex="1" parent="1">
          <mxGeometry x="559.04" y="333" width="80" height="80" as="geometry" />
        </mxCell>
        <mxCell id="d56XgBpLTi84VJgYfu7U-18" style="edgeStyle=orthogonalEdgeStyle;rounded=0;orthogonalLoop=1;jettySize=auto;html=1;exitX=1;exitY=0.5;exitDx=0;exitDy=0;entryX=0;entryY=0.5;entryDx=0;entryDy=0;fontSize=14;" edge="1" parent="1" source="d56XgBpLTi84VJgYfu7U-8" target="d56XgBpLTi84VJgYfu7U-2">
          <mxGeometry relative="1" as="geometry" />
        </mxCell>
        <mxCell id="d56XgBpLTi84VJgYfu7U-8" value="PIO1" style="whiteSpace=wrap;html=1;aspect=fixed;fillColor=#FFFFCC;strokeColor=#666600;fontSize=14;fontColor=#666600;" vertex="1" parent="1">
          <mxGeometry x="319.04" y="573" width="80" height="80" as="geometry" />
        </mxCell>
        <mxCell id="d56XgBpLTi84VJgYfu7U-22" value="I2S" style="edgeStyle=orthogonalEdgeStyle;rounded=0;orthogonalLoop=1;jettySize=auto;html=1;exitX=1;exitY=0.5;exitDx=0;exitDy=0;entryX=0;entryY=0.5;entryDx=0;entryDy=0;fontSize=14;labelBackgroundColor=none;" edge="1" parent="1" source="d56XgBpLTi84VJgYfu7U-13" target="d56XgBpLTi84VJgYfu7U-21">
          <mxGeometry x="0.073" y="10" relative="1" as="geometry">
            <mxPoint as="offset" />
          </mxGeometry>
        </mxCell>
        <mxCell id="d56XgBpLTi84VJgYfu7U-13" value="PIO0" style="whiteSpace=wrap;html=1;aspect=fixed;fillColor=#FFFFCC;strokeColor=#666600;fontSize=14;fontColor=#666600;" vertex="1" parent="1">
          <mxGeometry x="559.04" y="573" width="80" height="80" as="geometry" />
        </mxCell>
        <mxCell id="d56XgBpLTi84VJgYfu7U-17" style="edgeStyle=orthogonalEdgeStyle;rounded=0;orthogonalLoop=1;jettySize=auto;html=1;exitX=1;exitY=0.5;exitDx=0;exitDy=0;fontSize=14;" edge="1" parent="1" source="d56XgBpLTi84VJgYfu7U-3" target="d56XgBpLTi84VJgYfu7U-8">
          <mxGeometry relative="1" as="geometry">
            <Array as="points">
              <mxPoint x="879" y="373" />
              <mxPoint x="879" y="543" />
              <mxPoint x="359" y="543" />
            </Array>
          </mxGeometry>
        </mxCell>
        <mxCell id="d56XgBpLTi84VJgYfu7U-27" value="YM3012 serial samples" style="edgeLabel;html=1;align=center;verticalAlign=middle;resizable=0;points=[];fontSize=14;labelBackgroundColor=none;" vertex="1" connectable="0" parent="d56XgBpLTi84VJgYfu7U-17">
          <mxGeometry x="-0.4667" relative="1" as="geometry">
            <mxPoint x="-119" y="-10" as="offset" />
          </mxGeometry>
        </mxCell>
        <mxCell id="d56XgBpLTi84VJgYfu7U-30" value="Line Out" style="edgeStyle=orthogonalEdgeStyle;rounded=0;orthogonalLoop=1;jettySize=auto;html=1;exitX=1;exitY=0.25;exitDx=0;exitDy=0;fontSize=14;labelBackgroundColor=none;entryX=0;entryY=0.5;entryDx=0;entryDy=0;entryPerimeter=0;" edge="1" parent="1" source="d56XgBpLTi84VJgYfu7U-21" target="d56XgBpLTi84VJgYfu7U-52">
          <mxGeometry x="0.0574" y="13" relative="1" as="geometry">
            <mxPoint x="970" y="593" as="targetPoint" />
            <Array as="points" />
            <mxPoint as="offset" />
          </mxGeometry>
        </mxCell>
        <mxCell id="d56XgBpLTi84VJgYfu7U-21" value="I2S&lt;br&gt;DAC&lt;br&gt;&lt;font style=&quot;font-size: 12px;&quot;&gt;Pimoroni&lt;br&gt;Pico Audio&lt;/font&gt;" style="whiteSpace=wrap;html=1;aspect=fixed;fillColor=#97D077;strokeColor=#006600;fontSize=14;" vertex="1" parent="1">
          <mxGeometry x="769.04" y="573" width="80" height="80" as="geometry" />
        </mxCell>
        <mxCell id="d56XgBpLTi84VJgYfu7U-24" value="Clock 3.579 MHz" style="edgeStyle=orthogonalEdgeStyle;rounded=0;orthogonalLoop=1;jettySize=auto;html=1;exitX=1;exitY=0.5;exitDx=0;exitDy=0;fontSize=14;labelBackgroundColor=none;" edge="1" parent="1" source="d56XgBpLTi84VJgYfu7U-23" target="d56XgBpLTi84VJgYfu7U-3">
          <mxGeometry x="-0.1221" y="10" relative="1" as="geometry">
            <mxPoint as="offset" />
          </mxGeometry>
        </mxCell>
        <mxCell id="d56XgBpLTi84VJgYfu7U-23" value="PIO0" style="whiteSpace=wrap;html=1;aspect=fixed;fillColor=#FFFFCC;strokeColor=#666600;fontSize=14;fontColor=#666600;" vertex="1" parent="1">
          <mxGeometry x="559.04" y="433" width="80" height="80" as="geometry" />
        </mxCell>
        <mxCell id="d56XgBpLTi84VJgYfu7U-35" style="edgeStyle=orthogonalEdgeStyle;rounded=0;orthogonalLoop=1;jettySize=auto;html=1;exitX=1;exitY=0.5;exitDx=0;exitDy=0;entryX=0;entryY=0.5;entryDx=0;entryDy=0;fontSize=14;dashed=1;" edge="1" parent="1" source="d56XgBpLTi84VJgYfu7U-32" target="d56XgBpLTi84VJgYfu7U-1">
          <mxGeometry relative="1" as="geometry" />
        </mxCell>
        <mxCell id="d56XgBpLTi84VJgYfu7U-32" value="UART1" style="whiteSpace=wrap;html=1;aspect=fixed;fillColor=#FFFFCC;strokeColor=#666600;fontSize=14;fontColor=#666600;dashed=1;" vertex="1" parent="1">
          <mxGeometry x="319.04" y="433" width="80" height="80" as="geometry" />
        </mxCell>
        <mxCell id="d56XgBpLTi84VJgYfu7U-33" style="edgeStyle=orthogonalEdgeStyle;rounded=0;orthogonalLoop=1;jettySize=auto;html=1;exitX=0;exitY=0.5;exitDx=0;exitDy=0;startArrow=classic;startFill=1;endArrow=none;fontSize=14;dashed=1;entryX=1;entryY=0.5;entryDx=0;entryDy=0;" edge="1" parent="1" target="d56XgBpLTi84VJgYfu7U-56">
          <mxGeometry relative="1" as="geometry">
            <mxPoint x="160" y="473" as="targetPoint" />
            <mxPoint x="319.04" y="472.5" as="sourcePoint" />
          </mxGeometry>
        </mxCell>
        <mxCell id="d56XgBpLTi84VJgYfu7U-34" value="MIDI IN" style="edgeLabel;html=1;align=center;verticalAlign=middle;resizable=0;points=[];fontSize=14;labelBackgroundColor=none;" vertex="1" connectable="0" parent="d56XgBpLTi84VJgYfu7U-33">
          <mxGeometry x="0.0919" relative="1" as="geometry">
            <mxPoint x="-40" y="-10" as="offset" />
          </mxGeometry>
        </mxCell>
        <mxCell id="d56XgBpLTi84VJgYfu7U-47" style="edgeStyle=orthogonalEdgeStyle;rounded=0;orthogonalLoop=1;jettySize=auto;html=1;exitX=1;exitY=0.5;exitDx=0;exitDy=0;entryX=0;entryY=0.5;entryDx=0;entryDy=0;dashed=1;" edge="1" parent="1" source="d56XgBpLTi84VJgYfu7U-37" target="d56XgBpLTi84VJgYfu7U-46">
          <mxGeometry relative="1" as="geometry" />
        </mxCell>
        <mxCell id="d56XgBpLTi84VJgYfu7U-55" value="Debug&lt;br&gt;Console&lt;br&gt;115200 8N1" style="edgeLabel;html=1;align=center;verticalAlign=middle;resizable=0;points=[];labelBackgroundColor=none;" vertex="1" connectable="0" parent="d56XgBpLTi84VJgYfu7U-47">
          <mxGeometry x="0.132" y="2" relative="1" as="geometry">
            <mxPoint x="112" y="-18" as="offset" />
          </mxGeometry>
        </mxCell>
        <mxCell id="d56XgBpLTi84VJgYfu7U-37" value="UART0" style="whiteSpace=wrap;html=1;aspect=fixed;fillColor=#FFFFCC;strokeColor=#666600;fontSize=14;fontColor=#666600;" vertex="1" parent="1">
          <mxGeometry x="559.04" y="233" width="80" height="80" as="geometry" />
        </mxCell>
        <mxCell id="d56XgBpLTi84VJgYfu7U-43" style="edgeStyle=orthogonalEdgeStyle;rounded=0;orthogonalLoop=1;jettySize=auto;html=1;exitX=1;exitY=0.5;exitDx=0;exitDy=0;entryX=0;entryY=0.5;entryDx=0;entryDy=0;dashed=1;" edge="1" parent="1" source="d56XgBpLTi84VJgYfu7U-40" target="d56XgBpLTi84VJgYfu7U-42">
          <mxGeometry relative="1" as="geometry" />
        </mxCell>
        <mxCell id="d56XgBpLTi84VJgYfu7U-40" value="I2C" style="whiteSpace=wrap;html=1;aspect=fixed;fillColor=#FFFFCC;strokeColor=#666600;fontSize=14;fontColor=#666600;dashed=1;" vertex="1" parent="1">
          <mxGeometry x="559.04" y="133" width="80" height="80" as="geometry" />
        </mxCell>
        <mxCell id="d56XgBpLTi84VJgYfu7U-42" value="16x2&lt;br&gt;LCD" style="whiteSpace=wrap;html=1;aspect=fixed;fillColor=#97D077;strokeColor=#006600;fontSize=14;dashed=1;" vertex="1" parent="1">
          <mxGeometry x="769.04" y="133" width="80" height="80" as="geometry" />
        </mxCell>
        <mxCell id="d56XgBpLTi84VJgYfu7U-44" value="" style="sketch=0;aspect=fixed;pointerEvents=1;shadow=0;dashed=0;html=1;strokeColor=none;labelPosition=center;verticalLabelPosition=bottom;verticalAlign=top;align=center;fillColor=#00188D;shape=mxgraph.azure.laptop" vertex="1" parent="1">
          <mxGeometry x="40" y="352" width="75" height="45" as="geometry" />
        </mxCell>
        <mxCell id="d56XgBpLTi84VJgYfu7U-60" value="USB" style="edgeStyle=orthogonalEdgeStyle;rounded=0;orthogonalLoop=1;jettySize=auto;html=1;exitX=1;exitY=0.5;exitDx=0;exitDy=0;dashed=1;" edge="1" parent="1" source="d56XgBpLTi84VJgYfu7U-46" target="d56XgBpLTi84VJgYfu7U-44">
          <mxGeometry x="-0.4552" y="-10" relative="1" as="geometry">
            <Array as="points">
              <mxPoint x="1140" y="273" />
              <mxPoint x="1140" y="50" />
              <mxPoint x="78" y="50" />
              <mxPoint x="78" y="332" />
              <mxPoint x="80" y="332" />
            </Array>
            <mxPoint as="offset" />
          </mxGeometry>
        </mxCell>
        <mxCell id="d56XgBpLTi84VJgYfu7U-46" value="USB&lt;br&gt;UART&lt;br&gt;&lt;font style=&quot;font-size: 12px;&quot;&gt;Pico Debug Probe&lt;/font&gt;" style="whiteSpace=wrap;html=1;aspect=fixed;fillColor=#000099;strokeColor=#d79b00;fontSize=14;dashed=1;fontColor=#FFFFFF;" vertex="1" parent="1">
          <mxGeometry x="1034.75" y="233" width="80" height="80" as="geometry" />
        </mxCell>
        <mxCell id="d56XgBpLTi84VJgYfu7U-48" value="Phones Out" style="edgeStyle=orthogonalEdgeStyle;rounded=0;orthogonalLoop=1;jettySize=auto;html=1;exitX=1;exitY=0.75;exitDx=0;exitDy=0;fontSize=14;labelBackgroundColor=none;entryX=0.076;entryY=0.219;entryDx=0;entryDy=0;entryPerimeter=0;" edge="1" parent="1" source="d56XgBpLTi84VJgYfu7U-21" target="d56XgBpLTi84VJgYfu7U-50">
          <mxGeometry x="0.1444" y="13" relative="1" as="geometry">
            <mxPoint x="1030" y="630" as="targetPoint" />
            <mxPoint x="859" y="623" as="sourcePoint" />
            <mxPoint as="offset" />
            <Array as="points">
              <mxPoint x="1071" y="633" />
              <mxPoint x="1071" y="632" />
            </Array>
          </mxGeometry>
        </mxCell>
        <mxCell id="d56XgBpLTi84VJgYfu7U-50" value="" style="verticalLabelPosition=bottom;shadow=0;dashed=0;align=center;html=1;verticalAlign=top;shape=mxgraph.electrical.radio.headphones;pointerEvents=1;fillColor=#000099;" vertex="1" parent="1">
          <mxGeometry x="1074.75" y="623" width="40" height="40" as="geometry" />
        </mxCell>
        <mxCell id="d56XgBpLTi84VJgYfu7U-59" style="edgeStyle=orthogonalEdgeStyle;rounded=0;orthogonalLoop=1;jettySize=auto;html=1;exitX=0;exitY=0.5;exitDx=0;exitDy=0;endArrow=none;startFill=1;startArrow=classic;" edge="1" parent="1" source="d56XgBpLTi84VJgYfu7U-51">
          <mxGeometry relative="1" as="geometry">
            <mxPoint x="299" y="373" as="targetPoint" />
          </mxGeometry>
        </mxCell>
        <mxCell id="d56XgBpLTi84VJgYfu7U-51" value="PWR" style="whiteSpace=wrap;html=1;aspect=fixed;fillColor=#FFFFCC;strokeColor=#666600;fontSize=14;fontColor=#666600;" vertex="1" parent="1">
          <mxGeometry x="319.04" y="133" width="80" height="80" as="geometry" />
        </mxCell>
        <mxCell id="d56XgBpLTi84VJgYfu7U-52" value="" style="verticalLabelPosition=bottom;shadow=0;dashed=0;align=center;html=1;verticalAlign=top;shape=mxgraph.electrical.abstract.amplifier;strokeColor=#000066;fillColor=#000099;" vertex="1" parent="1">
          <mxGeometry x="1074.75" y="573" width="40" height="40" as="geometry" />
        </mxCell>
        <mxCell id="d56XgBpLTi84VJgYfu7U-56" value="MIDI&lt;br&gt;Controller" style="rounded=0;whiteSpace=wrap;html=1;fillColor=#000099;fontColor=#FFFFFF;" vertex="1" parent="1">
          <mxGeometry x="40" y="453" width="80" height="40" as="geometry" />
        </mxCell>
      </root>
    </mxGraphModel>
  </diagram>
</mxfile>
